<svg xmlns="http://www.w3.org/2000/svg"
     width="1000" height="1000" viewBox="0 0 25 25">
<polygon points="5,4 3.5,4.86603 3.5,3.13397"
         style="stroke:orangered; stroke-width: 0.1; fill:navy;"/>
<polygon points="9,4 8,5 7,4 8,3"
         style="stroke:orangered; stroke-width: 0.1; fill:navy;"/>
<polygon points="13,4 12.309,4.95106 11.191,4.58779 11.191,3.41221 12.309,3.04894"
         style="stroke:orangered; stroke-width: 0.1; fill:navy;"/>
<polygon points="17,4 16.5,4.86603 15.5,4.86603 15,4 15.5,3.13397 16.5,3.13397"
         style="stroke:orangered; stroke-width: 0.1; fill:navy;"/>
<polygon points="21,4 20.6235,4.78183 19.7775,4.97493 19.099,4.43388 19.099,3.56612 19.7775,3.02507 20.6235,3.21817"
         style="stroke:orangered; stroke-width: 0.1; fill:navy;"/>
<polygon points="5,8 4.70711,8.70711 4,9 3.29289,8.70711 3,8 3.29289,7.29289 4,7 4.70711,7.29289"
         style="stroke:orangered; stroke-width: 0.1; fill:navy;"/>
<polygon points="9,8 8.76604,8.64279 8.17365,8.98481 7.5,8.86603 7.06031,8.34202 7.06031,7.65798 7.5,7.13397 8.17365,7.01519 8.76604,7.35721"
         style="stroke:orangered; stroke-width: 0.1; fill:navy;"/>
<polygon points="13,8 12.809,8.58779 12.309,8.95106 11.691,8.95106 11.191,8.58779 11,8 11.191,7.41221 11.691,7.04894 12.309,7.04894 12.809,7.41221"
         style="stroke:orangered; stroke-width: 0.1; fill:navy;"/>
<polygon points="17,8 16.8413,8.54064 16.4154,8.90963 15.8577,8.98982 15.3451,8.75575 15.0405,8.28173 15.0405,7.71827 15.3451,7.24425 15.8577,7.01018 16.4154,7.09037 16.8413,7.45936"
         style="stroke:orangered; stroke-width: 0.1; fill:navy;"/>
<polygon points="21,8 20.866,8.5 20.5,8.86603 20,9 19.5,8.86603 19.134,8.5 19,8 19.134,7.5 19.5,7.13397 20,7 20.5,7.13397 20.866,7.5"
         style="stroke:orangered; stroke-width: 0.1; fill:navy;"/>
<polygon points="5,12 4.88546,12.4647 4.56806,12.823 4.12054,12.9927 3.6454,12.935 3.25149,12.6631 3.02906,12.2393 3.02906,11.7607 3.25149,11.3369 3.6454,11.065 4.12054,11.0073 4.56806,11.177 4.88546,11.5353"
         style="stroke:orangered; stroke-width: 0.1; fill:navy;"/>
<polygon points="9,12 8.90097,12.4339 8.62349,12.7818 8.22252,12.9749 7.77748,12.9749 7.37651,12.7818 7.09903,12.4339 7,12 7.09903,11.5661 7.37651,11.2182 7.77748,11.0251 8.22252,11.0251 8.62349,11.2182 8.90097,11.5661"
         style="stroke:orangered; stroke-width: 0.1; fill:navy;"/>
<polygon points="13,12 12.9135,12.4067 12.6691,12.7431 12.309,12.9511 11.8955,12.9945 11.5,12.866 11.191,12.5878 11.0219,12.2079 11.0219,11.7921 11.191,11.4122 11.5,11.134 11.8955,11.0055 12.309,11.0489 12.6691,11.2569 12.9135,11.5933"
         style="stroke:orangered; stroke-width: 0.1; fill:navy;"/>
<polygon points="17,12 16.9239,12.3827 16.7071,12.7071 16.3827,12.9239 16,13 15.6173,12.9239 15.2929,12.7071 15.0761,12.3827 15,12 15.0761,11.6173 15.2929,11.2929 15.6173,11.0761 16,11 16.3827,11.0761 16.7071,11.2929 16.9239,11.6173"
         style="stroke:orangered; stroke-width: 0.1; fill:navy;"/>
<polygon points="21,12 20.9325,12.3612 20.739,12.6737 20.4457,12.8952 20.0923,12.9957 19.7263,12.9618 19.3974,12.798 19.1498,12.5264 19.017,12.1837 19.017,11.8163 19.1498,11.4736 19.3974,11.202 19.7263,11.0382 20.0923,11.0043 20.4457,11.1048 20.739,11.3263 20.9325,11.6388"
         style="stroke:orangered; stroke-width: 0.1; fill:navy;"/>
<polygon points="5,16 4.93969,16.342 4.76604,16.6428 4.5,16.866 4.17365,16.9848 3.82635,16.9848 3.5,16.866 3.23396,16.6428 3.06031,16.342 3,16 3.06031,15.658 3.23396,15.3572 3.5,15.134 3.82635,15.0152 4.17365,15.0152 4.5,15.134 4.76604,15.3572 4.93969,15.658"
         style="stroke:orangered; stroke-width: 0.1; fill:navy;"/>
<polygon points="9,16 8.94582,16.3247 8.78914,16.6142 8.54695,16.8372 8.24549,16.9694 7.91742,16.9966 7.5983,16.9158 7.32272,16.7357 7.12053,16.4759 7.01364,16.1646 7.01364,15.8354 7.12053,15.5241 7.32272,15.2643 7.5983,15.0842 7.91742,15.0034 8.24549,15.0306 8.54695,15.1628 8.78914,15.3858 8.94582,15.6753"
         style="stroke:orangered; stroke-width: 0.1; fill:navy;"/>
<polygon points="13,16 12.9511,16.309 12.809,16.5878 12.5878,16.809 12.309,16.9511 12,17 11.691,16.9511 11.4122,16.809 11.191,16.5878 11.0489,16.309 11,16 11.0489,15.691 11.191,15.4122 11.4122,15.191 11.691,15.0489 12,15 12.309,15.0489 12.5878,15.191 12.809,15.4122 12.9511,15.691"
         style="stroke:orangered; stroke-width: 0.1; fill:navy;"/>
<polygon points="17,16 16.9556,16.2948 16.8262,16.5633 16.6235,16.7818 16.3653,16.9309 16.0747,16.9972 15.7775,16.9749 15.5,16.866 15.2669,16.6802 15.099,16.4339 15.0112,16.149 15.0112,15.851 15.099,15.5661 15.2669,15.3198 15.5,15.134 15.7775,15.0251 16.0747,15.0028 16.3653,15.0691 16.6235,15.2182 16.8262,15.4367 16.9556,15.7052"
         style="stroke:orangered; stroke-width: 0.1; fill:navy;"/>
<polygon points="21,16 20.9595,16.2817 20.8413,16.5406 20.6549,16.7557 20.4154,16.9096 20.1423,16.9898 19.8577,16.9898 19.5846,16.9096 19.3451,16.7557 19.1587,16.5406 19.0405,16.2817 19,16 19.0405,15.7183 19.1587,15.4594 19.3451,15.2443 19.5846,15.0904 19.8577,15.0102 20.1423,15.0102 20.4154,15.0904 20.6549,15.2443 20.8413,15.4594 20.9595,15.7183"
         style="stroke:orangered; stroke-width: 0.1; fill:navy;"/>
<polygon points="5,20 4.96292,20.2698 4.85442,20.5196 4.68255,20.7308 4.46007,20.8879 4.20346,20.9791 3.93176,20.9977 3.66512,20.9423 3.42332,20.817 3.22429,20.6311 3.08279,20.3984 3.00931,20.1362 3.00931,19.8638 3.08279,19.6016 3.22429,19.3689 3.42332,19.183 3.66512,19.0577 3.93176,19.0023 4.20346,19.0209 4.46007,19.1121 4.68255,19.2692 4.85442,19.4804 4.96292,19.7302"
         style="stroke:orangered; stroke-width: 0.1; fill:navy;"/>
<polygon points="9,20 8.96593,20.2588 8.86603,20.5 8.70711,20.7071 8.5,20.866 8.25882,20.9659 8,21 7.74118,20.9659 7.5,20.866 7.29289,20.7071 7.13397,20.5 7.03407,20.2588 7,20 7.03407,19.7412 7.13397,19.5 7.29289,19.2929 7.5,19.134 7.74118,19.0341 8,19 8.25882,19.0341 8.5,19.134 8.70711,19.2929 8.86603,19.5 8.96593,19.7412"
         style="stroke:orangered; stroke-width: 0.1; fill:navy;"/>
<polygon points="13,20 12.9686,20.2487 12.8763,20.4818 12.729,20.6845 12.5358,20.8443 12.309,20.9511 12.0628,20.998 11.8126,20.9823 11.5742,20.9048 11.3626,20.7705 11.191,20.5878 11.0702,20.3681 11.0079,20.1253 11.0079,19.8747 11.0702,19.6319 11.191,19.4122 11.3626,19.2295 11.5742,19.0952 11.8126,19.0177 12.0628,19.002 12.309,19.0489 12.5358,19.1557 12.729,19.3155 12.8763,19.5182 12.9686,19.7513"
         style="stroke:orangered; stroke-width: 0.1; fill:navy;"/>
<polygon points="17,20 16.9709,20.2393 16.8855,20.4647 16.7485,20.6631 16.5681,20.823 16.3546,20.935 16.1205,20.9927 15.8795,20.9927 15.6454,20.935 15.4319,20.823 15.2515,20.6631 15.1145,20.4647 15.0291,20.2393 15,20 15.0291,19.7607 15.1145,19.5353 15.2515,19.3369 15.4319,19.177 15.6454,19.065 15.8795,19.0073 16.1205,19.0073 16.3546,19.065 16.5681,19.177 16.7485,19.3369 16.8855,19.5353 16.9709,19.7607"
         style="stroke:orangered; stroke-width: 0.1; fill:navy;"/>
<polygon points="21,20 20.973,20.2306 20.8936,20.4488 20.766,20.6428 20.5972,20.8021 20.3961,20.9182 20.1736,20.9848 19.9419,20.9983 19.7132,20.958 19.5,20.866 19.3138,20.7274 19.1645,20.5495 19.0603,20.342 19.0068,20.1161 19.0068,19.8839 19.0603,19.658 19.1645,19.4505 19.3138,19.2726 19.5,19.134 19.7132,19.042 19.9419,19.0017 20.1736,19.0152 20.3961,19.0818 20.5972,19.1979 20.766,19.3572 20.8936,19.5512 20.973,19.7694"
         style="stroke:orangered; stroke-width: 0.1; fill:navy;"/>
</svg>